<svg xmlns="http://www.w3.org/2000/svg" version="1.1" xmlns:xlink="http://www.w3.org/1999/xlink"
    xmlns:svgjs="http://svgjs.dev/svgjs" viewBox="0 0 2400 800" opacity="0.47">
    <defs>
        <linearGradient x1="50%" y1="0%" x2="50%" y2="100%" id="sssurf-grad">
            <stop stop-color="hsl(204, 92%, 75%)" stop-opacity="1" offset="0%"></stop>
            <stop stop-color="hsl(204, 92%, 75%)" stop-opacity="1" offset="100%"></stop>
        </linearGradient>
    </defs>
    <g fill="url(#sssurf-grad)" transform="matrix(1,0,0,1,0,-478.83892822265625)">
        <path
            d="M 0 334.5156984527113 Q 450 491.9306848117354 600 312.91406081820185 Q 1050 481.00392502527035 1200 340.3988520650916 Q 1650 597.5937854166752 1800 309.6779070812137 Q 2250 494.3979473758693 2400 340.9909728156316 L 2400 800 L 0 800 L 0 333.6538319899623 Z"
            transform="matrix(1,0,0,1,0,131)" opacity="0.05"></path>
        <path
            d="M 0 334.5156984527113 Q 450 491.9306848117354 600 312.91406081820185 Q 1050 481.00392502527035 1200 340.3988520650916 Q 1650 597.5937854166752 1800 309.6779070812137 Q 2250 494.3979473758693 2400 340.9909728156316 L 2400 800 L 0 800 L 0 333.6538319899623 Z"
            transform="matrix(1,0,0,1,0,262)" opacity="0.21"></path>
        <path
            d="M 0 334.5156984527113 Q 450 491.9306848117354 600 312.91406081820185 Q 1050 481.00392502527035 1200 340.3988520650916 Q 1650 597.5937854166752 1800 309.6779070812137 Q 2250 494.3979473758693 2400 340.9909728156316 L 2400 800 L 0 800 L 0 333.6538319899623 Z"
            transform="matrix(1,0,0,1,0,393)" opacity="0.37"></path>
        <path
            d="M 0 334.5156984527113 Q 450 491.9306848117354 600 312.91406081820185 Q 1050 481.00392502527035 1200 340.3988520650916 Q 1650 597.5937854166752 1800 309.6779070812137 Q 2250 494.3979473758693 2400 340.9909728156316 L 2400 800 L 0 800 L 0 333.6538319899623 Z"
            transform="matrix(1,0,0,1,0,524)" opacity="0.53"></path>
        <path
            d="M 0 334.5156984527113 Q 450 491.9306848117354 600 312.91406081820185 Q 1050 481.00392502527035 1200 340.3988520650916 Q 1650 597.5937854166752 1800 309.6779070812137 Q 2250 494.3979473758693 2400 340.9909728156316 L 2400 800 L 0 800 L 0 333.6538319899623 Z"
            transform="matrix(1,0,0,1,0,655)" opacity="0.68"></path>
        <path
            d="M 0 334.5156984527113 Q 450 491.9306848117354 600 312.91406081820185 Q 1050 481.00392502527035 1200 340.3988520650916 Q 1650 597.5937854166752 1800 309.6779070812137 Q 2250 494.3979473758693 2400 340.9909728156316 L 2400 800 L 0 800 L 0 333.6538319899623 Z"
            transform="matrix(1,0,0,1,0,786)" opacity="0.84"></path>
        <path
            d="M 0 334.5156984527113 Q 450 491.9306848117354 600 312.91406081820185 Q 1050 481.00392502527035 1200 340.3988520650916 Q 1650 597.5937854166752 1800 309.6779070812137 Q 2250 494.3979473758693 2400 340.9909728156316 L 2400 800 L 0 800 L 0 333.6538319899623 Z"
            transform="matrix(1,0,0,1,0,917)" opacity="1"></path>
    </g>
</svg>